<svg xmlns="http://www.w3.org/2000/svg" width="155" height="50" viewBox="0 0 155 50" fill="none"><mask id="mask0_1_2439" style="mask-type:luminance" maskUnits="userSpaceOnUse" x="3" y="0" width="47" height="48"><path d="M49.7775 0.681885H3.38606V47.5469H49.7775V0.681885Z" fill="white"></path></mask><g mask="url(#mask0_1_2439)"><path d="M35.4016 33.0303L49.6885 47.2796C49.7353 47.3265 49.7447 47.3828 49.7213 47.4438C49.6978 47.5047 49.6509 47.5328 49.5853 47.5375C42.2379 47.4016 35.7251 45.1603 30.0422 40.8044C28.5652 39.6743 26.6944 37.9676 24.439 35.6748C21.1475 32.3363 17.7762 28.965 14.3158 25.5562C14.0579 25.303 14.1142 25.1718 14.4753 25.1671C18.1419 25.1389 21.9305 25.1436 25.8363 25.1858C27.7494 25.2046 29.2357 24.9983 30.2954 24.5716C36.5034 22.049 36.6488 13.656 30.5064 10.8895C29.6249 10.491 28.3917 10.2941 26.8022 10.2941C22.601 10.3034 18.2826 10.3175 13.8516 10.3456C12.2574 10.355 10.907 10.1675 9.80985 9.78297C5.99313 8.44196 3.52212 4.99566 3.38614 0.935126C3.38614 0.87886 3.4049 0.831974 3.44241 0.794463C3.47992 0.756952 3.52681 0.733506 3.57838 0.733506C11.3947 0.780394 18.6343 0.775706 25.2924 0.71944C28.2323 0.695996 30.4689 0.888237 31.9881 1.30086C41.0844 3.74843 46.6735 13.2902 43.9587 22.3678C42.5942 26.9441 39.7481 30.4233 35.425 32.7958C35.3828 32.8193 35.3594 32.8568 35.35 32.9037C35.35 32.9552 35.364 32.9974 35.4016 33.0303Z" fill="white"></path></g><mask id="mask1_1_2439" style="mask-type:luminance" maskUnits="userSpaceOnUse" x="55" y="2" width="47" height="16"><path d="M101.416 2.12604H55.6854V17.1585H101.416V2.12604Z" fill="white"></path></mask><g mask="url(#mask1_1_2439)"><path d="M63.8112 10.2566H79.3547C84.5171 10.2566 89.0981 12.7886 91.9208 16.6756H101.195C100.023 13.8623 98.3023 11.2834 96.0798 9.06562C91.6113 4.60184 85.6752 2.1402 79.3547 2.1402H55.6854C55.6854 6.61804 59.3239 10.2566 63.8112 10.2566Z" fill="white"></path></g><mask id="mask2_1_2439" style="mask-type:luminance" maskUnits="userSpaceOnUse" x="109" y="33" width="46" height="17"><path d="M154.743 33.637L109.017 34.4189L109.274 49.4499L155 48.6679L154.743 33.637Z" fill="white"></path></mask><g mask="url(#mask2_1_2439)"><path d="M146.733 40.6683L131.19 40.9356C126.027 41.0247 121.404 38.5724 118.516 34.7322L109.246 34.8917C110.465 37.6815 112.233 40.2369 114.488 42.4173C119.032 46.806 125.01 49.1645 131.326 49.0567L154.99 48.6487C154.915 44.1615 151.22 40.5886 146.733 40.6683Z" fill="white"></path></g><mask id="mask3_1_2439" style="mask-type:luminance" maskUnits="userSpaceOnUse" x="109" y="2" width="46" height="16"><path d="M109.265 2.11695L109.007 17.1479L154.733 17.9299L154.99 2.89894L109.265 2.11695Z" fill="white"></path></mask><g mask="url(#mask3_1_2439)"><path d="M146.733 10.899L131.19 10.6317C126.027 10.5426 121.404 12.9949 118.516 16.835L109.246 16.6756C110.465 13.8858 112.233 11.3303 114.488 9.15002C119.032 4.76127 125.01 2.40278 131.326 2.51062L154.99 2.91855C154.915 7.40109 151.221 10.974 146.733 10.899Z" fill="white"></path></g><path d="M94.8794 25.7906H79.3547C79.3547 30.2919 83.0026 33.9445 87.5086 33.9445H92.5631C89.8249 38.3661 84.9297 41.3201 79.3547 41.3201C70.7928 41.3201 63.8299 34.3525 63.8299 25.7906H55.7088C55.7088 32.1065 58.1705 38.0473 62.6343 42.5158C67.1027 46.9842 73.0388 49.4412 79.3594 49.4412C85.6799 49.4412 91.616 46.9795 96.0798 42.5158C100.548 38.0473 103.01 32.1112 103.01 25.7906H94.8794Z" fill="white"></path><mask id="mask4_1_2439" style="mask-type:luminance" maskUnits="userSpaceOnUse" x="55" y="13" width="10" height="9"><path d="M64.0644 13.1215H55.6854V21.702H64.0644V13.1215Z" fill="white"></path></mask><g mask="url(#mask4_1_2439)"><path d="M60.093 21.5754H63.7738V17.4305C63.7738 15.2549 62.0108 13.4872 59.8351 13.4872H55.6855V17.1679C55.6855 19.6014 57.6595 21.5754 60.093 21.5754Z" fill="white"></path></g><mask id="mask5_1_2439" style="mask-type:luminance" maskUnits="userSpaceOnUse" x="108" y="21" width="9" height="9"><path d="M116.579 21.0924H108.2V29.673H116.579V21.0924Z" fill="white"></path></mask><g mask="url(#mask5_1_2439)"><path d="M112.608 29.5464H116.289V25.4014C116.289 23.2258 114.526 21.4581 112.35 21.4581H108.2V25.1389C108.2 27.5724 110.174 29.5464 112.608 29.5464Z" fill="white"></path></g><mask id="mask6_1_2439" style="mask-type:luminance" maskUnits="userSpaceOnUse" x="7" y="30" width="7" height="7"><path d="M13.3265 30.6342H7.87807V36.2139H13.3265V30.6342Z" fill="white"></path></mask><g mask="url(#mask6_1_2439)"><path d="M10.7428 36.1342H13.1388V33.4381C13.1388 32.0221 11.9901 30.8734 10.5787 30.8734H7.88263V33.2694C7.87794 34.8542 9.15799 36.1342 10.7428 36.1342Z" fill="white"></path></g><mask id="mask7_1_2439" style="mask-type:luminance" maskUnits="userSpaceOnUse" x="0" y="30" width="6" height="7"><path d="M5.74929 30.6342H0.300858V36.2139H5.74929V30.6342Z" fill="white"></path></mask><g mask="url(#mask7_1_2439)"><path d="M3.17049 36.1342H5.56648V33.4381C5.56648 32.0221 4.41772 30.8734 3.00638 30.8734H0.310293V33.2694C0.300915 34.8542 1.58566 36.1342 3.17049 36.1342Z" fill="white"></path></g><mask id="mask8_1_2439" style="mask-type:luminance" maskUnits="userSpaceOnUse" x="7" y="36" width="7" height="7"><path d="M13.3265 36.7859H7.87807V42.3657H13.3265V36.7859Z" fill="white"></path></mask><g mask="url(#mask8_1_2439)"><path d="M10.7428 42.2906H13.1388V39.5945C13.1388 38.1785 11.9901 37.0297 10.5787 37.0297H7.88263V39.4257C7.87794 41.0059 9.15799 42.2906 10.7428 42.2906Z" fill="white"></path></g><mask id="mask9_1_2439" style="mask-type:luminance" maskUnits="userSpaceOnUse" x="0" y="36" width="6" height="7"><path d="M5.74929 36.7859H0.300858V42.3657H5.74929V36.7859Z" fill="white"></path></mask><g mask="url(#mask9_1_2439)"><path d="M3.17049 42.2906H5.56648V39.5945C5.56648 38.1785 4.41772 37.0297 3.00638 37.0297H0.310293V39.4257C0.300915 41.0059 1.58566 42.2906 3.17049 42.2906Z" fill="white"></path></g></svg>